<svg width="96" height="61" viewBox="0 0 96 61" fill="none" xmlns="http://www.w3.org/2000/svg">
<path d="M5.125 43.2227C5.125 43.1315 5.125 43.0176 5.125 42.8809C5.17057 42.7441 5.19336 42.6758 5.19336 42.6758C5.87695 41.3542 6.58333 40.0781 7.3125 38.8477C8.08724 37.6172 8.86198 36.4095 9.63672 35.2246C10.457 33.9941 11.2318 32.7637 11.9609 31.5332C12.7357 30.2572 13.4421 28.9811 14.0801 27.7051C13.8978 27.2949 13.4421 26.9303 12.7129 26.6113C11.9837 26.2923 11.0951 25.9505 10.0469 25.5859C9.04427 25.2214 7.97331 24.8112 6.83398 24.3555C5.69466 23.8542 4.64648 23.2845 3.68945 22.6465C2.73242 21.9629 1.9349 21.1882 1.29688 20.3223C0.658854 19.4108 0.339844 18.3626 0.339844 17.1777C0.339844 15.9473 0.75 14.8763 1.57031 13.9648C2.39062 13.0078 3.39323 12.2331 4.57812 11.6406C5.76302 11.0026 7.01628 10.5241 8.33789 10.2051C9.65951 9.88607 10.7988 9.72656 11.7559 9.72656C13.7611 9.72656 15.5156 10.0684 17.0195 10.752C18.569 11.4355 20.1641 12.3242 21.8047 13.418C22.3516 13.0078 22.8073 12.5521 23.1719 12.0508C23.582 11.5495 23.9466 11.0026 24.2656 10.4102C24.4023 10.0911 24.6986 9.52148 25.1543 8.70117C25.6556 7.83529 26.1341 6.92383 26.5898 5.9668C27.0911 5.00977 27.5697 4.12109 28.0254 3.30078C28.5267 2.4349 28.8457 1.81966 28.9824 1.45508C29.347 1.18164 29.6432 1.02214 29.8711 0.976562C30.099 0.885417 30.418 0.839844 30.8281 0.839844C30.8737 0.839844 30.9648 0.839844 31.1016 0.839844C31.2839 0.839844 31.3978 0.839844 31.4434 0.839844C31.8991 2.75391 32.2409 4.71354 32.4688 6.71875C32.6966 8.72396 32.8561 10.7292 32.9473 12.7344C33.084 14.7396 33.1979 16.7448 33.2891 18.75C33.3802 20.7552 33.5397 22.7604 33.7676 24.7656C33.9043 24.7656 34.1549 24.7884 34.5195 24.834C34.8841 24.834 35.1576 24.834 35.3398 24.834C35.9779 24.834 36.6159 24.7656 37.2539 24.6289C37.8919 24.4922 38.5299 24.3555 39.168 24.2188C39.806 24.0365 40.444 23.877 41.082 23.7402C41.7656 23.6035 42.4492 23.5352 43.1328 23.5352H43.3379C43.3835 23.5807 43.4746 23.6719 43.6113 23.8086C43.748 23.9453 43.862 24.0365 43.9531 24.082C43.6797 24.5833 43.224 24.9935 42.5859 25.3125C41.9935 25.5859 41.3099 25.8138 40.5352 25.9961C39.806 26.1784 39.0312 26.3607 38.2109 26.543C37.3906 26.6797 36.6615 26.862 36.0234 27.0898C35.3854 27.2721 34.8385 27.5 34.3828 27.7734C33.9727 28.0469 33.7676 28.4342 33.7676 28.9355C33.7676 29.847 33.8132 30.7585 33.9043 31.6699C34.041 32.5814 34.1777 33.5156 34.3145 34.4727C34.4967 35.3841 34.6562 36.3184 34.793 37.2754C34.9297 38.1868 34.998 39.1211 34.998 40.0781C34.998 40.306 34.9753 40.625 34.9297 41.0352C34.9297 41.4453 34.8841 41.8555 34.793 42.2656C34.7474 42.6758 34.6107 43.0404 34.3828 43.3594C34.2005 43.6784 33.9043 43.8379 33.4941 43.8379C33.0384 43.8379 32.6283 43.4961 32.2637 42.8125C31.8991 42.1289 31.6029 41.263 31.375 40.2148C31.1471 39.1667 30.9421 38.0273 30.7598 36.7969C30.623 35.5208 30.4863 34.3132 30.3496 33.1738C30.2585 31.9889 30.1445 30.9635 30.0078 30.0977C29.8711 29.1862 29.7344 28.5938 29.5977 28.3203C29.2331 28.2747 28.5495 28.2292 27.5469 28.1836C26.5898 28.138 25.5645 28.0924 24.4707 28.0469C23.4225 27.9557 22.4199 27.8874 21.4629 27.8418C20.5059 27.7507 19.8451 27.7051 19.4805 27.7051H18.7969C17.8854 27.7051 17.0195 28.138 16.1992 29.0039C15.4245 29.8242 14.6953 30.8952 14.0117 32.2168C13.3737 33.4928 12.7357 34.8828 12.0977 36.3867C11.4596 37.8451 10.8444 39.235 10.252 40.5566C9.65951 41.8327 9.04427 42.9036 8.40625 43.7695C7.76823 44.6354 7.08464 45.0684 6.35547 45.0684C5.85417 45.0684 5.51237 44.8861 5.33008 44.5215C5.19336 44.1113 5.125 43.6784 5.125 43.2227ZM18.8652 24.7656C19.2298 24.9935 19.6628 25.1758 20.1641 25.3125C20.7109 25.4036 21.2578 25.4492 21.8047 25.4492C22.3516 25.4492 22.8529 25.4492 23.3086 25.4492C23.8099 25.4492 24.2428 25.4492 24.6074 25.4492C24.7897 25.4492 25.0176 25.4492 25.291 25.4492C25.5645 25.4036 25.8379 25.3809 26.1113 25.3809C26.3848 25.3809 26.6126 25.3809 26.7949 25.3809C27.0228 25.3353 27.1595 25.3125 27.2051 25.3125L27.8203 24.7656C27.9115 24.6745 27.752 24.2643 27.3418 23.5352C26.9316 22.806 26.4076 22.054 25.7695 21.2793C25.1771 20.459 24.5846 19.7298 23.9922 19.0918C23.3997 18.4082 22.9896 18.0664 22.7617 18.0664C22.7161 18.0664 22.6706 18.0892 22.625 18.1348C22.5794 18.1803 22.5111 18.2031 22.4199 18.2031C21.7363 19.2057 21.0983 20.2539 20.5059 21.3477C19.9134 22.4414 19.3665 23.5807 18.8652 24.7656ZM3.34766 17.1094C3.34766 18.2943 3.75781 19.3424 4.57812 20.2539C5.39844 21.1198 6.40104 21.849 7.58594 22.4414C8.77083 23.0339 10.0241 23.4668 11.3457 23.7402C12.6673 24.0137 13.8294 24.1504 14.832 24.1504C15.4701 24.1504 16.1309 23.8314 16.8145 23.1934C17.498 22.5098 18.1133 21.735 18.6602 20.8691C19.2526 20.0033 19.7311 19.1146 20.0957 18.2031C20.5059 17.2917 20.7109 16.5853 20.7109 16.084C20.7109 15.5371 20.3464 15.0358 19.6172 14.5801C18.888 14.0788 18.0221 13.6458 17.0195 13.2812C16.0625 12.9167 15.1055 12.6432 14.1484 12.4609C13.1914 12.2331 12.485 12.1191 12.0293 12.1191C11.3457 12.1191 10.5026 12.2331 9.5 12.4609C8.54297 12.6432 7.58594 12.9395 6.62891 13.3496C5.71745 13.7598 4.94271 14.2839 4.30469 14.9219C3.66667 15.5143 3.34766 16.2435 3.34766 17.1094ZM24.8125 14.8535C24.8125 15.446 25.0404 16.1751 25.4961 17.041C25.9518 17.9069 26.4987 18.75 27.1367 19.5703C27.7747 20.3906 28.4355 21.097 29.1191 21.6895C29.8483 22.2819 30.4863 22.5781 31.0332 22.5781C31.0332 22.3503 31.0104 22.0085 30.9648 21.5527C30.9648 21.097 30.9421 20.5957 30.8965 20.0488C30.8965 19.502 30.8737 19.0007 30.8281 18.5449C30.8281 18.0892 30.8281 17.7474 30.8281 17.5195C30.737 16.8815 30.623 16.0384 30.4863 14.9902C30.3952 13.9421 30.2812 12.9167 30.1445 11.9141C30.0534 10.9115 29.9395 10.0228 29.8027 9.24805C29.7116 8.47331 29.6432 8.06315 29.5977 8.01758L28.9824 6.85547C28.9368 6.90104 28.8229 6.99219 28.6406 7.12891C28.5039 7.26562 28.4128 7.35677 28.3672 7.40234C28.2305 7.67578 28.0026 8.13151 27.6836 8.76953C27.3646 9.36198 27 10 26.5898 10.6836C26.2253 11.3672 25.8835 12.028 25.5645 12.666C25.2454 13.304 25.0176 13.737 24.8809 13.9648C24.8809 14.056 24.8581 14.2155 24.8125 14.4434C24.8125 14.6712 24.8125 14.8079 24.8125 14.8535ZM77.1074 32.5586C74.0085 35.0195 70.9323 37.321 67.8789 39.4629C64.8255 41.6048 61.5443 43.4961 58.0352 45.1367C57.6706 45.0456 57.3288 45.0228 57.0098 45.0684C56.6908 45.1139 56.3717 45.1823 56.0527 45.2734C55.7793 45.4102 55.4603 45.5241 55.0957 45.6152C54.7767 45.7064 54.4577 45.752 54.1387 45.752C53.2272 45.752 52.3385 45.5697 51.4727 45.2051C50.6523 44.8405 49.9232 44.362 49.2852 43.7695C48.6471 43.1315 48.1458 42.4023 47.7812 41.582C47.4167 40.7617 47.2344 39.8958 47.2344 38.9844C47.2344 36.25 47.804 33.6068 48.9434 31.0547C50.1283 28.457 51.5638 25.9961 53.25 23.6719C54.9818 21.3021 56.873 19.069 58.9238 16.9727C60.9746 14.8307 62.8659 12.8711 64.5977 11.0938L62.752 9.86328L63.3672 9.31641C64.3698 9.36198 65.2812 9.27083 66.1016 9.04297C66.9219 8.76953 67.6966 8.47331 68.4258 8.1543C69.1549 7.83529 69.8841 7.53906 70.6133 7.26562C71.388 6.99219 72.2311 6.85547 73.1426 6.85547C73.416 6.85547 73.6895 6.85547 73.9629 6.85547C74.2363 6.85547 74.4642 6.90104 74.6465 6.99219C74.8743 7.03776 75.0339 7.15169 75.125 7.33398C75.2617 7.51628 75.3301 7.76693 75.3301 8.08594C75.3301 8.22266 74.9655 8.56445 74.2363 9.11133C73.5072 9.61263 72.5273 10.2962 71.2969 11.1621C70.112 11.9824 68.7448 12.9622 67.1953 14.1016C65.6458 15.2409 64.0508 16.5169 62.4102 17.9297C60.8151 19.3424 59.2428 20.8691 57.6934 22.5098C56.1895 24.1048 54.8223 25.791 53.5918 27.5684C52.3613 29.3001 51.3815 31.123 50.6523 33.0371C49.9232 34.9512 49.5586 36.888 49.5586 38.8477C49.5586 39.6224 49.7181 40.2604 50.0371 40.7617C50.3561 41.2174 50.7435 41.6048 51.1992 41.9238C51.7005 42.2428 52.2474 42.4707 52.8398 42.6074C53.4779 42.6986 54.0931 42.7441 54.6855 42.7441C56.6908 42.7441 58.7871 42.2201 60.9746 41.1719C63.1621 40.1237 65.2812 38.8477 67.332 37.3438C69.3828 35.8398 71.2969 34.222 73.0742 32.4902C74.8971 30.7585 76.4466 29.1862 77.7227 27.7734C77.9961 27.5 78.1556 27.2266 78.2012 26.9531C78.2923 26.6797 78.3379 26.3607 78.3379 25.9961C78.3379 25.9049 78.3151 25.791 78.2695 25.6543C78.2695 25.5176 78.2695 25.4492 78.2695 25.4492C76.9023 25.7227 75.6263 26.0417 74.4414 26.4062C73.2565 26.7253 72.0716 27.0898 70.8867 27.5C69.7474 27.8646 68.6081 28.2747 67.4688 28.7305C66.375 29.1406 65.2129 29.6191 63.9824 30.166C63.9368 30.166 63.8913 30.166 63.8457 30.166C63.8457 30.2116 63.7773 30.2344 63.6406 30.2344C63.276 30.2344 63.0254 30.0977 62.8887 29.8242C62.752 29.5508 62.6836 29.2773 62.6836 29.0039C62.6836 28.5026 63.0482 28.0013 63.7773 27.5C64.5521 26.9531 65.4408 26.4746 66.4434 26.0645C67.446 25.6087 68.4486 25.2214 69.4512 24.9023C70.4538 24.5833 71.2057 24.3555 71.707 24.2188C71.8438 24.1732 72.2311 24.0592 72.8691 23.877C73.5527 23.6947 74.2591 23.5124 74.9883 23.3301C75.7174 23.1022 76.401 22.9199 77.0391 22.7832C77.6771 22.6009 78.0872 22.487 78.2695 22.4414C78.6341 22.3503 78.9531 22.2135 79.2266 22.0312C79.5 21.8034 79.7734 21.5983 80.0469 21.416C80.3203 21.1882 80.5938 21.0059 80.8672 20.8691C81.1406 20.6868 81.4824 20.5957 81.8926 20.5957C82.1204 20.5957 82.3255 20.6185 82.5078 20.6641C82.7357 20.7096 82.918 20.8919 83.0547 21.2109H93.7871C93.8327 21.2109 93.9466 21.2337 94.1289 21.2793C94.3112 21.3249 94.4935 21.3932 94.6758 21.4844C94.9036 21.5299 95.0859 21.5983 95.2227 21.6895C95.3594 21.735 95.4733 21.7578 95.5645 21.7578C95.5645 21.8034 95.5872 21.849 95.6328 21.8945C95.6328 21.9401 95.6328 21.9857 95.6328 22.0312C95.6328 22.0312 95.6328 22.054 95.6328 22.0996C95.6328 22.1452 95.6328 22.1908 95.6328 22.2363C95.6328 22.2363 95.6328 22.2591 95.6328 22.3047C95.5872 22.3503 95.5645 22.3958 95.5645 22.4414C95.5189 22.5326 95.4277 22.6465 95.291 22.7832C95.1543 22.9199 95.0632 22.9883 95.0176 22.9883C94.653 22.9883 94.0378 23.0339 93.1719 23.125C92.3516 23.1706 91.4629 23.2389 90.5059 23.3301C89.5488 23.3757 88.6374 23.4212 87.7715 23.4668C86.9512 23.5124 86.3815 23.5579 86.0625 23.6035C85.0599 23.7402 84.2852 23.9453 83.7383 24.2188C83.1914 24.4922 82.7585 25.0846 82.4395 25.9961C81.9382 27.6823 81.5508 29.2546 81.2773 30.7129C81.0039 32.1257 80.7988 33.5156 80.6621 34.8828C80.571 36.25 80.5254 37.6628 80.5254 39.1211C80.5254 40.5794 80.5254 42.1745 80.5254 43.9062C80.5254 44.1797 80.5254 44.7266 80.5254 45.5469C80.5254 46.3672 80.5254 47.2103 80.5254 48.0762C80.571 48.9876 80.5938 49.8307 80.5938 50.6055C80.6393 51.3802 80.6621 51.9271 80.6621 52.2461C80.7077 52.5195 80.8216 52.998 81.0039 53.6816C81.1862 54.3652 81.3685 55.0716 81.5508 55.8008C81.7786 56.5755 81.9609 57.3047 82.0977 57.9883C82.2344 58.6719 82.3483 59.1504 82.4395 59.4238C82.485 59.515 82.5078 59.7428 82.5078 60.1074C82.5534 60.5176 82.5762 60.791 82.5762 60.9277C81.847 60.9277 81.209 60.6543 80.6621 60.1074C80.1608 59.5605 79.7279 58.8542 79.3633 57.9883C78.9987 57.1224 78.7025 56.1654 78.4746 55.1172C78.2923 54.069 78.1328 53.0436 77.9961 52.041C77.9049 51.0384 77.8366 50.127 77.791 49.3066C77.7454 48.4863 77.7227 47.8711 77.7227 47.4609C77.6771 46.9141 77.6315 45.9798 77.5859 44.6582C77.5859 43.291 77.5859 41.8555 77.5859 40.3516C77.5859 38.8021 77.5859 37.3665 77.5859 36.0449C77.6315 34.6777 77.6771 33.7207 77.7227 33.1738L77.1074 32.5586Z" fill="#FAFAFA"/>
</svg>
